<svg width="54" height="54" viewBox="0 0 54 54" fill="none" xmlns="http://www.w3.org/2000/svg">
<path d="M8.09999 2.70001C7.38391 2.70001 6.69715 2.98448 6.19081 3.49082C5.68446 3.99717 5.39999 4.68393 5.39999 5.40001C5.39999 6.1161 5.68446 6.80285 6.19081 7.3092C6.69715 7.81555 7.38391 8.10001 8.09999 8.10001H11.394L12.2175 11.3994C12.2257 11.4374 12.2347 11.4752 12.2445 11.5128L15.9111 26.1738L13.5 28.5822C10.098 31.9842 12.5064 37.8 17.3178 37.8H40.5C41.2161 37.8 41.9028 37.5155 42.4092 37.0092C42.9155 36.5028 43.2 35.8161 43.2 35.1C43.2 34.3839 42.9155 33.6972 42.4092 33.1908C41.9028 32.6845 41.2161 32.4 40.5 32.4H17.3178L20.0178 29.7H37.8C38.3013 29.6997 38.7926 29.5599 39.2189 29.2962C39.6452 29.0325 39.9897 28.6553 40.2138 28.2069L48.3138 12.0069C48.5194 11.5954 48.6165 11.1381 48.5958 10.6785C48.5751 10.2189 48.4373 9.77226 48.1955 9.38088C47.9537 8.98949 47.6159 8.66639 47.2142 8.44222C46.8124 8.21805 46.36 8.10026 45.9 8.10001H16.956L16.119 4.74391C15.9727 4.16005 15.6356 3.6418 15.1611 3.27148C14.6865 2.90117 14.1019 2.70003 13.5 2.70001H8.09999Z" fill="white"/>
<path d="M43.2 44.55C43.2 45.6241 42.7733 46.6543 42.0138 47.4138C41.2543 48.1733 40.2241 48.6 39.15 48.6C38.0759 48.6 37.0457 48.1733 36.2862 47.4138C35.5267 46.6543 35.1 45.6241 35.1 44.55C35.1 43.4759 35.5267 42.4457 36.2862 41.6862C37.0457 40.9267 38.0759 40.5 39.15 40.5C40.2241 40.5 41.2543 40.9267 42.0138 41.6862C42.7733 42.4457 43.2 43.4759 43.2 44.55Z" fill="white"/>
<path d="M17.55 48.6C18.6241 48.6 19.6543 48.1733 20.4138 47.4138C21.1733 46.6543 21.6 45.6241 21.6 44.55C21.6 43.4759 21.1733 42.4457 20.4138 41.6862C19.6543 40.9267 18.6241 40.5 17.55 40.5C16.4759 40.5 15.4457 40.9267 14.6862 41.6862C13.9267 42.4457 13.5 43.4759 13.5 44.55C13.5 45.6241 13.9267 46.6543 14.6862 47.4138C15.4457 48.1733 16.4759 48.6 17.55 48.6Z" fill="white"/>
</svg>
