<svg width="142" height="52" viewBox="0 0 142 52" fill="none" xmlns="http://www.w3.org/2000/svg">
<path fill-rule="evenodd" clip-rule="evenodd" d="M141.851 0H0V52H141.851V0ZM102.508 43.669C105.292 44.3052 108.143 44.6233 111.06 44.6233C114.582 44.6233 117.567 44.1043 120.015 43.0664C122.497 41.995 124.358 40.572 125.599 38.7975C126.84 36.9895 127.46 34.9806 127.46 32.7708C127.46 30.2262 126.773 28.2173 125.398 26.7441C124.056 25.2709 122.463 24.2162 120.619 23.5801C118.774 22.9104 116.51 22.3245 113.827 21.8223C111.748 21.4205 110.256 21.0522 109.35 20.7174C108.445 20.3491 107.992 19.8134 107.992 19.1103C107.992 17.6371 109.518 16.9005 112.57 16.9005C115.655 16.9005 118.925 17.771 122.379 19.5121L125.951 10.924C124.174 9.91959 122.111 9.16625 119.764 8.66403C117.449 8.12832 115.085 7.86047 112.67 7.86047C109.149 7.86047 106.147 8.37943 103.665 9.41736C101.217 10.4553 99.3725 11.8783 98.1316 13.6863C96.8907 15.4943 96.2703 17.5032 96.2703 19.713C96.2703 22.2576 96.941 24.2832 98.2826 25.7899C99.6241 27.2631 101.2 28.3345 103.011 29.0041C104.822 29.6402 107.086 30.2429 109.803 30.8121C111.916 31.2474 113.425 31.6491 114.33 32.0174C115.269 32.3857 115.739 32.9382 115.739 33.6748C115.739 34.3109 115.387 34.7964 114.683 35.1312C113.978 35.4326 112.804 35.5832 111.161 35.5832C109.249 35.5832 107.254 35.2986 105.175 34.7294C103.095 34.1268 101.217 33.34 99.5402 32.369L95.7169 41.0072C97.4944 42.1121 99.7582 42.9994 102.508 43.669ZM45.3622 34.8801V43.8197H16.0837V8.66403H44.7083V17.6036H27.7549V21.7218H42.6457V30.2597H27.7549V34.8801H45.3622ZM81.3744 43.8197L81.2738 27.7988L73.6272 40.6557H68.3953L60.7486 28.3512V43.8197H49.9327V8.66403H59.6922L71.1621 27.397L82.3302 8.66403H92.0897L92.1903 43.8197H81.3744Z" fill="#FF7A00"/>
</svg>
